# xmcd CD database file
#
# Track frame offsets:
#	150
#	12277
#	31675
#	41675
#	59867
#	73365
#	82607
#	96707
#	109185
#	125995
#	138225
#	150350
#	160755
#	181522
#
# Disc length: 2639 seconds
#
# Revision: 0
# Processed by: cddbd v1.5.2PL0 Copyright (c) Steve Scherf et al.
# Submitted via: ACXtractor (MTCDDB.DLL V2003.07.15)
#
DISCID=b80a4d0e
DTITLE=Daniel O'Donnell - favourites
DYEAR=1998
DGENRE=Country
TTITLE0=Bed of Roses
TTITLE1=Forever You'll be Mine
TTITLE2=Excuse me 
TTITLE3=Halo of Gold
TTITLE4=The Streets of Baltimore
TTITLE5=Geisha Girl
TTITLE6=Life to Go
TTITLE7=That's a Sad Affair
TTITLE8=Bringing Mary Home
TTITLE9=Home Sweet Home
TTITLE10=The Banks of My Own Lovely Lee
TTITLE11=Home is Where the Heart Is
TTITLE12=Dublin in the Rare Ould Times
TTITLE13=The Green Hills of Sligo
EXTD=ID3G:  17 YEAR: 1998
EXTT0=
EXTT1=
EXTT2=
EXTT3=
EXTT4=
EXTT5=
EXTT6=
EXTT7=
EXTT8=
EXTT9=
EXTT10=
EXTT11=
EXTT12=
EXTT13=
PLAYORDER=
